<?xml version="1.0" encoding="UTF-8"?>
<svg width="16px" height="16px" viewBox="0 0 16 16" version="1.1" xmlns="http://www.w3.org/2000/svg" xmlns:xlink="http://www.w3.org/1999/xlink">
    <!-- Generator: Sketch 55.2 (78181) - https://sketchapp.com -->
    <title>Path</title>
    <desc>Created with Sketch.</desc>
    <g id="页面1" stroke="none" stroke-width="1" fill="none" fill-rule="evenodd" opacity="0.7">
        <g id="编组-18备份" transform="translate(-280.000000, -535.000000)" fill="#FFFFFF">
            <g id="Stacked-Group" transform="translate(16.000000, 59.000000)">
                <g id="编组-15" transform="translate(0.000000, 448.000000)">
                    <g id="Group-10备份-2" transform="translate(24.000000, 20.000000)">
                        <g id="Group" transform="translate(240.000000, 8.000000)">
                            <path d="M5,4 L5,5 L6,5 L6,4 L9,4 L9,5 L10,5 L10,4 L12,4 L12,6 L3,6 L3,4 L5,4 Z M5,3 L2.5,3 L2,3 L2,3.5 L2,12.5 L2,13 L2.5,13 L12.5,13 L13,13 L13,12.5 L13,3.5 L13,3 L12.5,3 L10,3 L10,2 L9,2 L9,3 L6,3 L6,2 L5,2 L5,3 Z M3,7 L3,12 L12,12 L12,7 L3,7 Z" id="Union"></path>
                        </g>
                    </g>
                </g>
            </g>
        </g>
    </g>
</svg>